HIERARCHY
ROOT hip
{
  OFFSET 0.00112043 5.09927 -9.65472
  CHANNELS 6 Xposition Yposition Zposition Zrotation Xrotation Yrotation
  JOINT abdomen
  {
    OFFSET 0 -1.186 -1.5018
    CHANNELS 3 Zrotation Xrotation Yrotation
    JOINT abdomen2
    {
      OFFSET 0 9.964 0.2134
      CHANNELS 3 Zrotation Xrotation Yrotation
      JOINT chest
      {
        OFFSET 0 13.134 -3.2573
        CHANNELS 3 Zrotation Xrotation Yrotation
        JOINT neck
        {
          OFFSET 0 20.686 -1.6905
          CHANNELS 3 Zrotation Xrotation Yrotation
          JOINT head
          {
            OFFSET 0 7.238 -0.1237
            CHANNELS 3 Zrotation Xrotation Yrotation
            End Site
            {
              OFFSET 0 0 0
            }
          }
        }
        JOINT lCollar
        {
          OFFSET 1.7069 20.075 5.0056
          CHANNELS 3 Zrotation Xrotation Yrotation
          JOINT lShldr
          {
            OFFSET 13.6458 -0.047 -4.849
            CHANNELS 3 Zrotation Xrotation Yrotation
            JOINT lForeArm
            {
              OFFSET 28.3255 -0.9759 2.2888
              CHANNELS 3 Zrotation Xrotation Yrotation
              JOINT lHand
              {
                OFFSET 22.1583 -0.53 10.8316
                CHANNELS 3 Zrotation Xrotation Yrotation
                JOINT lThumb1
                {
                  OFFSET 0.786 0.112 2.5817
                  CHANNELS 3 Zrotation Xrotation Yrotation
                  JOINT lThumb2
                  {
                    OFFSET 0.3601 -0.878 4.2331
                    CHANNELS 3 Zrotation Xrotation Yrotation
                    JOINT lThumb2_End
                    {
                      OFFSET 1.8127 -1.216 2.2227
                      CHANNELS 3 Zrotation Xrotation Yrotation
                      End Site
                      {
                        OFFSET 0.0181 -0.0122 0.0222
                      }
                    }
                  }
                }
                JOINT lCarpal1
                {
                  OFFSET 0.9571 1.114 1.7695
                  CHANNELS 3 Zrotation Xrotation Yrotation
                  JOINT lIndex1
                  {
                    OFFSET 4.1246 0.487 4.1451
                    CHANNELS 3 Zrotation Xrotation Yrotation
                    JOINT lIndex2
                    {
                      OFFSET 3.4052 -1.454 2.7682
                      CHANNELS 3 Zrotation Xrotation Yrotation
                      JOINT lIndex2_End
                      {
                        OFFSET 1.4531 -1.795 1.2713
                        CHANNELS 3 Zrotation Xrotation Yrotation
                        End Site
                        {
                          OFFSET 0.0145 -0.0179 0.0127
                        }
                      }
                    }
                  }
                  JOINT lMid1
                  {
                    OFFSET 5.6954 0.21 2.1184
                    CHANNELS 3 Zrotation Xrotation Yrotation
                    JOINT lMid2
                    {
                      OFFSET 3.9766 -1.54 2.3863
                      CHANNELS 3 Zrotation Xrotation Yrotation
                      JOINT lMid2_End
                      {
                        OFFSET 1.4042 -1.926 1.125
                        CHANNELS 3 Zrotation Xrotation Yrotation
                        End Site
                        {
                          OFFSET 0.014 -0.0193 0.0113
                        }
                      }
                    }
                  }
                }
                JOINT lCarpal2
                {
                  OFFSET 2.0956 0.66 -0.3894
                  CHANNELS 3 Zrotation Xrotation Yrotation
                  JOINT lRing1
                  {
                    OFFSET 5.0395 -0.09 2.4971
                    CHANNELS 3 Zrotation Xrotation Yrotation
                    JOINT lRing2
                    {
                      OFFSET 3.7921 -1.552 1.4806
                      CHANNELS 3 Zrotation Xrotation Yrotation
                      JOINT lRing2_End
                      {
                        OFFSET 1.4655 -1.808 0.9609
                        CHANNELS 3 Zrotation Xrotation Yrotation
                        End Site
                        {
                          OFFSET 0.0147 -0.0181 0.0096
                        }
                      }
                    }
                  }
                  JOINT lPinky1
                  {
                    OFFSET 4.9141 -1.269 0.3591
                    CHANNELS 3 Zrotation Xrotation Yrotation
                    JOINT lPinky2
                    {
                      OFFSET 3.1477 -1.685 0.8462
                      CHANNELS 3 Zrotation Xrotation Yrotation
                      JOINT lPinky2_End
                      {
                        OFFSET 0.8055 -1.585 0.7955
                        CHANNELS 3 Zrotation Xrotation Yrotation
                        End Site
                        {
                          OFFSET 0.0081 -0.0158 0.008
                        }
                      }
                    }
                  }
                }
              }
            }
          }
        }
        JOINT rCollar
        {
          OFFSET -1.7069 20.075 5.0056
          CHANNELS 3 Zrotation Xrotation Yrotation
          JOINT rShldr
          {
            OFFSET -13.6458 -0.047 -4.849
            CHANNELS 3 Zrotation Xrotation Yrotation
            JOINT rForeArm
            {
              OFFSET -28.3255 -0.9759 2.2888
              CHANNELS 3 Zrotation Xrotation Yrotation
              JOINT rHand
              {
                OFFSET -22.1583 -0.53 10.8316
                CHANNELS 3 Zrotation Xrotation Yrotation
                JOINT rThumb1
                {
                  OFFSET -0.786 0.112 2.5817
                  CHANNELS 3 Zrotation Xrotation Yrotation
                  JOINT rThumb2
                  {
                    OFFSET -0.3601 -0.878 4.2331
                    CHANNELS 3 Zrotation Xrotation Yrotation
                    JOINT rThumb2_End
                    {
                      OFFSET -1.8127 -1.216 2.2227
                      CHANNELS 3 Zrotation Xrotation Yrotation
                      End Site
                      {
                        OFFSET -0.0181 -0.0122 0.0222
                      }
                    }
                  }
                }
                JOINT rCarpal1
                {
                  OFFSET -0.9571 1.114 1.7695
                  CHANNELS 3 Zrotation Xrotation Yrotation
                  JOINT rIndex1
                  {
                    OFFSET -4.1246 0.487 4.1451
                    CHANNELS 3 Zrotation Xrotation Yrotation
                    JOINT rIndex2
                    {
                      OFFSET -3.4052 -1.454 2.7682
                      CHANNELS 3 Zrotation Xrotation Yrotation
                      JOINT rIndex2_End
                      {
                        OFFSET -1.4531 -1.795 1.2713
                        CHANNELS 3 Zrotation Xrotation Yrotation
                        End Site
                        {
                          OFFSET -0.0145 -0.018 0.0127
                        }
                      }
                    }
                  }
                  JOINT rMid1
                  {
                    OFFSET -5.6954 0.21 2.1184
                    CHANNELS 3 Zrotation Xrotation Yrotation
                    JOINT rMid2
                    {
                      OFFSET -3.9766 -1.54 2.3863
                      CHANNELS 3 Zrotation Xrotation Yrotation
                      JOINT rMid2_End
                      {
                        OFFSET -1.4042 -1.926 1.125
                        CHANNELS 3 Zrotation Xrotation Yrotation
                        End Site
                        {
                          OFFSET -0.014 -0.0193 0.0113
                        }
                      }
                    }
                  }
                }
                JOINT rCarpal2
                {
                  OFFSET -2.0956 0.66 -0.3894
                  CHANNELS 3 Zrotation Xrotation Yrotation
                  JOINT rRing1
                  {
                    OFFSET -5.0395 -0.09 2.4971
                    CHANNELS 3 Zrotation Xrotation Yrotation
                    JOINT rRing2
                    {
                      OFFSET -3.7921 -1.552 1.4806
                      CHANNELS 3 Zrotation Xrotation Yrotation
                      JOINT rRing2_End
                      {
                        OFFSET -1.4655 -1.808 0.9609
                        CHANNELS 3 Zrotation Xrotation Yrotation
                        End Site
                        {
                          OFFSET -0.0147 -0.0181 0.0096
                        }
                      }
                    }
                  }
                  JOINT rPinky1
                  {
                    OFFSET -4.9141 -1.269 0.3592
                    CHANNELS 3 Zrotation Xrotation Yrotation
                    JOINT rPinky2
                    {
                      OFFSET -3.1477 -1.685 0.8462
                      CHANNELS 3 Zrotation Xrotation Yrotation
                      JOINT rPinky2_End
                      {
                        OFFSET -0.8055 -1.585 0.7955
                        CHANNELS 3 Zrotation Xrotation Yrotation
                        End Site
                        {
                          OFFSET -0.0081 -0.0158 0.008
                        }
                      }
                    }
                  }
                }
              }
            }
          }
        }
      }
    }
  }
  JOINT lThigh
  {
    OFFSET 8.367 -8.2066 0.5982
    CHANNELS 3 Zrotation Xrotation Yrotation
    JOINT lShin
    {
      OFFSET 2.1923 -43.463 -0.4932
      CHANNELS 3 Zrotation Xrotation Yrotation
      JOINT lFoot
      {
        OFFSET 0.7333 -45.8593 -2.6451
        CHANNELS 3 Zrotation Xrotation Yrotation
        End Site
        {
          OFFSET 2.6618 -4.2699 12.3931
        }
      }
    }
  }
  JOINT rThigh
  {
    OFFSET -8.367 -8.2066 0.5982
    CHANNELS 3 Zrotation Xrotation Yrotation
    JOINT rShin
    {
      OFFSET -2.1923 -43.463 -0.4931
      CHANNELS 3 Zrotation Xrotation Yrotation
      JOINT rFoot
      {
        OFFSET -0.7333 -45.8593 -2.6451
        CHANNELS 3 Zrotation Xrotation Yrotation
        End Site
        {
          OFFSET -2.6618 -4.2699 12.3931
        }
      }
    }
  }
}
MOTION
Frames:	5
Frame Time:	0.0333333
0 91.7903 2.51682 0 0 -0 0 0 -0 0 0 -0 0 0 -0 0 0 -0 0 0 -0 0 0 -0 1.66051 0.0835086 5.75766 -0.0175111 0.895433 15.7816 7.95139e-016 -1.98785e-016 -0 5.46658e-016 -3.97569e-016 -0 5.96354e-016 0 -0 3.97569e-016 1.98785e-016 9.54166e-015 1.49089e-016 -3.97569e-016 -0 6.4605e-016 0 3.18055e-015 5.96354e-016 0 3.18055e-015 8.94531e-016 -1.98785e-016 6.36111e-015 6.4605e-016 0 3.18055e-015 5.96354e-016 0 3.18055e-015 8.94531e-016 -1.98785e-016 6.36111e-015 1.49089e-016 -3.97569e-016 -0 6.4605e-016 0 3.18055e-015 5.96354e-016 0 3.18055e-015 8.94531e-016 -1.98785e-016 6.36111e-015 6.4605e-016 0 3.18055e-015 5.96354e-016 0 3.18055e-015 8.94531e-016 -1.98785e-016 6.36111e-015 0 0 -0 -1.4496 0.0636048 -5.0245 -1.74811 1.20616 -16.8394 -1.19271e-015 1.98785e-016 -3.18055e-015 -3.97569e-016 1.98785e-016 -3.18055e-015 -2.98177e-016 1.98785e-016 -3.18055e-015 -2.98177e-016 3.97569e-016 -0 4.96962e-016 0 -6.36111e-015 -9.93923e-017 3.97569e-016 -0 -8.94531e-016 5.96354e-016 -0 -3.97569e-016 3.97569e-016 -0 -9.93923e-017 3.97569e-016 -0 -8.94531e-016 5.96354e-016 -0 -3.97569e-016 3.97569e-016 -0 4.96962e-016 0 -6.36111e-015 -9.93923e-017 3.97569e-016 -0 -8.94531e-016 5.96354e-016 -0 -3.97569e-016 3.97569e-016 -0 -9.93923e-017 3.97569e-016 -0 -8.94531e-016 5.96354e-016 -0 -3.97569e-016 3.97569e-016 -0 -4.66111 -0.998717 0.12318 0.00986924 1.54847 0.176523 4.65186 -0.572283 -0.254274 4.66111 -0.998765 -0.123176 -0.00986867 1.54869 -0.176537 -4.65186 -0.572453 0.25427 
0.785929 53.1288 -3.75147 -0 -11.0508 -0 -0.692889 13.4975 0.173825 -1.49454 26.9916 0.544986 -1.49454 26.9916 0.544987 0.00585743 -0.249906 0.00707983 -7.50533e-007 -0.254413 -1.93659e-007 -8.03602 -14.0035 -10.7329 9.99514 19.5879 -33.9358 28.3659 -18.3669 -7.54365 28.8387 -6.01885 -5.42315 -9.86686e-007 1.37115e-006 -2.15894e-007 -1.39002e-006 -1.98297e-006 1.50477e-006 -2.35784e-006 3.84467e-007 -3.40388e-007 5.96354e-016 -2.18663e-015 -3.18055e-015 -9.86686e-007 1.37115e-006 -2.15894e-007 -1.39002e-006 -1.98297e-006 1.50477e-006 -2.35784e-006 3.84467e-007 -3.40388e-007 -9.86686e-007 1.37115e-006 -2.15894e-007 -1.39002e-006 -1.98297e-006 1.50477e-006 -2.35784e-006 3.84467e-007 -3.40388e-007 5.96354e-016 -2.18663e-015 -3.18055e-015 -9.86686e-007 1.37115e-006 -2.15894e-007 -1.39002e-006 -1.98297e-006 1.50477e-006 -2.35784e-006 3.84467e-007 -3.40388e-007 -9.86686e-007 1.37115e-006 -2.15894e-007 -1.39002e-006 -1.98297e-006 1.50477e-006 -2.35784e-006 3.84467e-007 -3.40388e-007 8.01863 -14.0044 10.7084 -9.81865 19.724 34.5982 -30.4643 -18.3796 5.98451 -28.7777 -6.35291 5.25963 3.18055e-015 -1.78906e-015 -0 2.38542e-015 8.54774e-015 -0 -1.59028e-015 2.78299e-015 -3.18055e-015 1.59028e-015 -5.76476e-015 -0 -2.38542e-015 0 -0 7.95139e-016 7.95139e-016 3.18055e-015 7.95139e-016 5.36719e-015 3.18055e-015 -2.38542e-015 0 -0 7.95139e-016 7.95139e-016 3.18055e-015 7.95139e-016 5.36719e-015 3.18055e-015 1.59028e-015 -5.76476e-015 -0 -2.38542e-015 0 -0 7.95139e-016 7.95139e-016 3.18055e-015 7.95139e-016 5.36719e-015 3.18055e-015 -2.38542e-015 0 -0 7.95139e-016 7.95139e-016 3.18055e-015 7.95139e-016 5.36719e-015 3.18055e-015 44.6191 -54.6118 61.802 10.9544 76.0801 -10.9264 2.93707 -7.523 0.110696 -44.6212 -54.6012 -61.9026 -11.0879 76.0598 11.0367 -2.98912 -7.53157 -0.0737643 
1.14167 35.3876 -5.37585 -0 -16.3284 -0 -1.03258 19.5719 0.229622 -2.38611 39.1351 0.954445 -2.38611 39.1351 0.954445 -0.0204853 -0.40267 -0.0247741 1.32539e-007 -0.449536 4.16399e-007 -13.4903 -19.7691 -16.3198 21.5679 20.3198 -53.2447 36.8673 -24.069 -18.98 42.2644 -8.23654 -6.33166 1.65521e-032 5.96354e-016 -1.59028e-015 -1.36789e-007 -1.61861e-007 2.51385e-008 -0 -4.17448e-015 -0 -2.20695e-032 -7.95139e-016 -1.59028e-015 2.38542e-015 -2.44505e-014 3.18055e-015 -1.36789e-007 -1.61861e-007 2.51385e-008 -1.59028e-015 -2.98177e-015 3.18055e-015 2.38542e-015 -2.44505e-014 3.18055e-015 -1.36789e-007 -1.61861e-007 2.51385e-008 -1.59028e-015 -2.98177e-015 3.18055e-015 -2.20695e-032 -7.95139e-016 -1.59028e-015 2.38542e-015 -2.44505e-014 3.18055e-015 -1.36789e-007 -1.61861e-007 2.51385e-008 -1.59028e-015 -2.98177e-015 3.18055e-015 2.38542e-015 -2.44505e-014 3.18055e-015 -1.36789e-007 -1.61861e-007 2.51385e-008 -1.59028e-015 -2.98177e-015 3.18055e-015 13.46 -19.7781 16.3524 -21.4499 20.5167 53.9041 -38.9429 -24.2772 17.2829 -42.2084 -8.72184 6.12105 7.35901e-007 -2.58797e-007 6.62273e-006 -7.35901e-007 2.58797e-007 -6.62273e-006 7.35901e-007 -2.58797e-007 6.62273e-006 -1.59028e-015 -1.19271e-015 -1.59028e-015 7.35901e-007 -2.58797e-007 6.62273e-006 -7.35901e-007 2.58797e-007 -6.62273e-006 7.35901e-007 -2.58797e-007 6.62273e-006 7.35901e-007 -2.58797e-007 6.62273e-006 -7.35901e-007 2.58797e-007 -6.62273e-006 7.35901e-007 -2.58797e-007 6.62273e-006 -1.59028e-015 -1.19271e-015 -1.59028e-015 7.35901e-007 -2.58797e-007 6.62273e-006 -7.35901e-007 2.58797e-007 -6.62273e-006 7.35901e-007 -2.58797e-007 6.62273e-006 7.35901e-007 -2.58797e-007 6.62273e-006 -7.35901e-007 2.58797e-007 -6.62273e-006 7.35901e-007 -2.58797e-007 6.62273e-006 94.8703 -45.9562 107.276 164.165 69.048 -161.184 3.0764 -10.4138 1.40122 -94.8322 -45.8322 -107.318 -164.051 69.0293 161.079 -3.14847 -10.4198 -1.34593 
1.06255 38.953 -5.13252 -0 -15.8331 -0 -0.956754 18.222 0.218418 -2.17128 36.4368 0.848128 -2.17127 36.4368 0.848126 -0.0792396 -0.455502 -0.0955754 -5.15538e-007 -0.585362 -8.52641e-007 -12.253 -18.219 -15.5684 18.8016 20.7553 -48.777 34.7049 -22.6524 -15.8561 38.9966 -8.0596 -6.54742 -7.95139e-016 -3.47873e-015 -0 2.88428e-007 3.13369e-007 -2.82469e-008 2.88428e-007 3.13369e-007 -2.82469e-008 -7.95139e-016 -1.09332e-015 -0 1.59028e-015 -8.84592e-015 1.59028e-015 2.88428e-007 3.13369e-007 -2.82469e-008 2.88428e-007 3.13369e-007 -2.82469e-008 1.59028e-015 -8.84592e-015 1.59028e-015 2.88428e-007 3.13369e-007 -2.82469e-008 2.88428e-007 3.13369e-007 -2.82469e-008 -7.95139e-016 -1.09332e-015 -0 1.59028e-015 -8.84592e-015 1.59028e-015 2.88428e-007 3.13369e-007 -2.82469e-008 2.88428e-007 3.13369e-007 -2.82469e-008 1.59028e-015 -8.84592e-015 1.59028e-015 2.88428e-007 3.13369e-007 -2.82469e-008 2.88428e-007 3.13369e-007 -2.82469e-008 12.2167 -18.2416 15.74 -18.6595 20.9441 49.3899 -36.7052 -22.7368 14.1085 -38.9761 -8.61278 6.43885 3.25009e-007 2.75153e-007 2.58852e-008 3.18055e-015 3.97569e-016 -0 4.98557e-008 6.00162e-007 4.0797e-008 5.51738e-033 1.98785e-016 -1.59028e-015 3.25009e-007 2.75153e-007 2.58852e-008 -2.20695e-032 3.97569e-016 3.18055e-015 4.98557e-008 6.00162e-007 4.07971e-008 3.25009e-007 2.75153e-007 2.58852e-008 -2.20695e-032 3.97569e-016 3.18055e-015 4.98557e-008 6.00162e-007 4.07971e-008 5.51738e-033 1.98785e-016 -1.59028e-015 3.25009e-007 2.75153e-007 2.58852e-008 -2.20695e-032 3.97569e-016 3.18055e-015 4.98557e-008 6.00162e-007 4.07971e-008 3.25009e-007 2.75153e-007 2.58852e-008 -2.20695e-032 3.97569e-016 3.18055e-015 4.98557e-008 6.00162e-007 4.07971e-008 85.5203 -49.5413 99.2964 158.787 76.0767 -156.681 3.25523 -9.76947 0.835868 -85.511 -49.4303 -99.3712 -158.64 76.0563 156.544 -3.32463 -9.77803 -0.785059 
1.06252 38.6788 -5.19315 -0 -16.3877 -0 -0.956755 18.222 0.218418 -2.17128 36.4368 0.848127 -2.17128 36.4368 0.848126 -0.132194 -0.526894 -0.159398 1.16755e-006 -0.732051 2.14234e-007 -12.3158 -17.9688 -16.0038 18.7791 20.7599 -48.5566 34.3286 -22.3638 -15.4378 38.7889 -8.27359 -6.82315 3.20549e-007 -2.70206e-007 -7.96093e-007 -2.75869e-033 -1.98785e-016 -7.95139e-016 -1.76319e-007 4.26897e-007 7.82171e-007 -7.95139e-016 -1.39149e-015 -7.95139e-016 3.20549e-007 -2.70206e-007 -7.96093e-007 -1.59028e-015 5.96354e-016 -0 -1.76319e-007 4.26897e-007 7.82171e-007 3.20549e-007 -2.70206e-007 -7.96093e-007 -1.59028e-015 5.96354e-016 -0 -1.76319e-007 4.26897e-007 7.82171e-007 -7.95139e-016 -1.39149e-015 -7.95139e-016 3.20549e-007 -2.70206e-007 -7.96093e-007 -1.59028e-015 5.96354e-016 -0 -1.76319e-007 4.26897e-007 7.82171e-007 3.20549e-007 -2.70206e-007 -7.96093e-007 -1.59028e-015 5.96354e-016 -0 -1.76319e-007 4.26897e-007 7.82171e-007 12.2729 -18.0034 16.2998 -18.6296 20.9524 49.1332 -36.2543 -22.3873 13.6305 -38.7985 -8.90767 6.78929 3.2504e-007 2.7517e-007 2.55447e-008 -4.96564e-031 5.96354e-015 4.77083e-015 -3.20008e-031 5.76476e-015 3.18055e-015 0 0 -0 3.2504e-007 2.7517e-007 2.55447e-008 1.59028e-015 6.36111e-015 3.18055e-015 -1.59028e-015 5.76476e-015 1.59028e-015 3.2504e-007 2.7517e-007 2.55447e-008 1.59028e-015 6.36111e-015 3.18055e-015 -1.59028e-015 5.76476e-015 1.59028e-015 0 0 -0 3.2504e-007 2.7517e-007 2.55447e-008 1.59028e-015 6.36111e-015 3.18055e-015 -1.59028e-015 5.76476e-015 1.59028e-015 3.2504e-007 2.7517e-007 2.55447e-008 1.59028e-015 6.36111e-015 3.18055e-015 -1.59028e-015 5.76476e-015 1.59028e-015 85.41 -49.3276 99.0736 159.067 75.8076 -156.932 3.4773 -9.71211 0.727704 -85.4013 -49.2166 -99.149 -158.922 75.7875 156.798 -3.548 -9.72158 -0.677224 
